#!OML:ASF F:\VICON\USERDATA\INSTALL\rory3\rory3.ASF
:FULLY-SPECIFIED
:DEGREES
375
root 0.282722 16.7679 4.42965 -15.5013 -66.3285 28.6795
lowerback -3.76514 -0.719904 0.402719
upperback -1.69509 -0.986586 -0.560847
thorax 0.355467 -0.50454 -0.839544
lowerneck -10.5017 7.93296 -6.21039
upperneck 47.716 14.1654 -3.92439
head 20.8994 3.13092 1.50134
rclavicle -6.95746e-015 -2.22639e-014
rhumerus -21.4818 38.9281 -67.5164
rradius 85.0764
rwrist -39.8326
rhand -1.69185 -39.7116
rfingers 7.12502
rthumb 23.9689 -68.2354
lclavicle -6.95746e-015 -2.22639e-014
lhumerus 29.4359 -8.16257 20.5311
lradius 93.3159
lwrist 48.8213
lhand -14.4709 -19.7957
lfingers 7.12502
lthumb 11.675 9.85901
rfemur -46.4864 8.48633 3.11889
rtibia 71.0434
rfoot -5.9301 -11.5023
rtoes -26.5886
lfemur -25.9696 -7.8032 -38.3553
ltibia 34.9921
lfoot -18.6899 6.82982
ltoes 15.5554
376
root 0.311693 16.7671 4.38281 -10.619 -66.0562 24.0739
lowerback -3.96896 0.329343 2.05106
upperback -1.82865 0.354064 -1.06268
thorax 0.366963 0.154757 -2.22627
lowerneck -10.1131 6.68816 -4.04589
upperneck 47.9103 11.5235 -3.89887
head 21.0963 2.52736 0.649245
rclavicle -1.799e-014 -1.74931e-014
rhumerus -23.8467 34.9751 -69.3591
rradius 84.8484
rwrist -39.4464
rhand -7.5929 -44.3375
rfingers 7.12502
rthumb 18.3005 -73.4966
lclavicle -1.799e-014 -1.74931e-014
lhumerus 33.5572 -9.85745 20.3098
lradius 93.3527
lwrist 48.9437
lhand -14.2625 -20.1482
lfingers 7.12502
lthumb 11.876 9.49502
rfemur -47.2278 8.47685 5.05113
rtibia 71.0959
rfoot -5.83906 -12.3904
rtoes -25.5133
lfemur -27.0871 -7.74489 -36.4303
ltibia 35.096
lfoot -18.1332 6.45104
ltoes 14.075
377
root 0.312952 16.7534 4.37593 -11.9573 -65.7728 25.6929
lowerback -4.18452 0.763446 1.49001
upperback -1.67654 0.955611 -1.76048
thorax 0.678574 0.460382 -2.59894
lowerneck -10.2061 6.19684 -3.05477
upperneck 48.0421 10.5168 -3.99549
head 21.3034 2.30695 0.241074
rclavicle 6.06293e-015 -1.43125e-014
rhumerus -24.5534 33.3193 -70.2969
rradius 84.633
rwrist -39.4489
rhand -4.25418 -42.1538
rfingers 7.12502
rthumb 21.5099 -70.9795
lclavicle 6.06293e-015 -1.43125e-014
lhumerus 35.2502 -10.6112 20.2106
lradius 93.4585
lwrist 48.9327
lhand -12.9445 -21.1876
lfingers 7.12502
lthumb 13.1467 8.378
rfemur -47.5156 8.35851 4.17907
rtibia 71.3387
rfoot -5.76988 -12.3244
rtoes -26.1001
lfemur -27.1662 -7.73595 -37.2049
ltibia 35.0375
lfoot -18.0683 6.36532
ltoes 13.4832
378
root 0.313073 16.7494 4.3791 -12.181 -65.5817 25.9883
lowerback -4.26987 0.499371 1.37639
upperback -1.56787 0.608288 -1.66805
thorax 0.816109 0.290021 -2.45545
lowerneck -10.3539 6.41354 -3.43835
upperneck 48.1253 11.0555 -4.13547
head 21.4242 2.40779 0.341081
rclavicle 1.6201e-014 -1.11319e-014
rhumerus -24.2345 34.3355 -70.3892
rradius 84.6163
rwrist -39.5989
rhand -3.82535 -41.5693
rfingers 7.12502
rthumb 21.9217 -70.3474
lclavicle 1.6201e-014 -1.11319e-014
lhumerus 34.4691 -10.6652 20.5625
lradius 93.6024
lwrist 48.8177
lhand -12.1081 -21.8122
lfingers 7.12502
lthumb 13.9528 7.69966
rfemur -47.5355 8.3553 3.93293
rtibia 71.4368
rfoot -5.72058 -12.3536
rtoes -26.6285
lfemur -27.2542 -7.90902 -37.3791
ltibia 35.2333
lfoot -18.2403 6.30092
ltoes 13.6018
379
root 0.316331 16.7489 4.38019 -11.8232 -65.3347 25.5616
lowerback -4.03355 -0.658638 1.24235
upperback -1.68207 -0.935513 -0.7111
thorax 0.503187 -0.482215 -1.46645
lowerneck -10.2855 7.44483 -5.25989
upperneck 47.9852 13.3425 -4.503
head 21.2476 2.88893 0.885706
rclavicle 8.15017e-015 -2.06736e-014
rhumerus -22.9996 38.5255 -69.7199
rradius 84.8162
rwrist -39.9771
rhand -5.03371 -42.0891
rfingers 7.12502
rthumb 20.761 -70.9985
lclavicle 8.15017e-015 -2.06736e-014
lhumerus 30.6654 -10.0571 21.3746
lradius 93.892
lwrist 48.6311
lhand -12.0532 -22.3239
lfingers 7.12502
lthumb 14.0057 7.18424
rfemur -47.4143 8.25988 4.04435
rtibia 71.5255
rfoot -5.76433 -12.4421
rtoes -26.9184
lfemur -27.0834 -8.32971 -37.1694
ltibia 35.1042
lfoot -18.268 6.01413
ltoes 14.4689
380
root 0.320575 16.7442 4.38117 -11.8911 -65.059 25.6264
lowerback -3.98846 -0.695466 1.17983
upperback -1.62265 -0.980678 -0.771987
thorax 0.537374 -0.503808 -1.49562
lowerneck -10.433 7.35288 -5.26778
upperneck 48.0895 13.188 -4.41068
head 21.3562 2.82669 0.912395
rclavicle -1.98785e-015 1.74931e-014
rhumerus -23.3002 38.6411 -70.1522
rradius 84.6813
rwrist -39.7725
rhand -6.3602 -43.1735
rfingers 7.12502
rthumb 19.4861 -72.217
lclavicle -1.98785e-015 1.74931e-014
lhumerus 30.6498 -10.4607 21.7408
lradius 94.0854
lwrist 48.5531
lhand -11.9768 -22.6691
lfingers 7.12502
lthumb 14.0794 6.83394
rfemur -47.3811 8.01362 3.9276
rtibia 71.6167
rfoot -5.88175 -12.2405
rtoes -27.1077
lfemur -26.9874 -8.70198 -37.1956
ltibia 35.0619
lfoot -18.2916 5.72686
ltoes 15.2926
381
root 0.326527 16.7365 4.38164 -12.0111 -64.7399 25.7687
lowerback -3.93887 -0.723498 1.04056
upperback -1.58784 -1.01183 -0.797515
thorax 0.546309 -0.51852 -1.44454
lowerneck -11.1208 7.18289 -5.54903
upperneck 48.4876 13.0051 -4.01545
head 21.9081 2.66931 1.24904
rclavicle -1.88845e-014 -2.22639e-014
rhumerus -23.4409 38.4746 -70.6979
rradius 84.137
rwrist -39.335
rhand -7.86983 -44.2565
rfingers 7.12502
rthumb 18.0341 -73.4404
lclavicle -1.88845e-014 -2.22639e-014
lhumerus 30.657 -10.9411 22.2354
lradius 94.3798
lwrist 48.6059
lhand -12.4124 -22.1827
lfingers 7.12502
lthumb 13.6596 7.34902
rfemur -47.3814 7.86694 3.73454
rtibia 71.723
rfoot -6.31488 -11.5708
rtoes -27.6358
lfemur -27.0195 -8.62727 -37.4876
ltibia 35.113
lfoot -18.2194 5.794
ltoes 14.3715
382
root 0.330783 16.7256 4.38328 -12.1193 -64.4308 25.8159
lowerback -3.84637 -0.770893 0.932275
upperback -1.52903 -1.06939 -0.814348
thorax 0.554774 -0.546248 -1.40253
lowerneck -11.2578 7.10602 -5.95012
upperneck 48.7484 12.8611 -3.61701
head 22.0636 2.56283 1.50815
rclavicle -3.61788e-014 -2.54444e-014
rhumerus -23.6529 38.3906 -71.3413
rradius 83.6811
rwrist -38.8468
rhand -9.14667 -44.8802
rfingers 7.12502
rthumb 16.8052 -74.1729
lclavicle -3.61788e-014 -2.54444e-014
lhumerus 30.6441 -11.4563 22.6404
lradius 94.6707
lwrist 48.6546
lhand -13.2124 -21.4296
lfingers 7.12502
lthumb 12.8884 8.15242
rfemur -47.2696 7.90349 3.57399
rtibia 71.8464
rfoot -5.80683 -12.4015
rtoes -27.8101
lfemur -26.9864 -8.55007 -37.7447
ltibia 35.2252
lfoot -18.2342 5.81488
ltoes 13.7927
